<?xml version="1.0" encoding="UTF-8"?>
<svg id="Calque_2" data-name="Calque 2" xmlns="http://www.w3.org/2000/svg" viewBox="0 0 92.6 92.58">
  <defs>
    <style>
      .cls-1 {
        fill: #fdfefd;
      }

      .cls-2 {
        fill: #32d751;
      }
    </style>
  </defs>
  <g id="Calque_des_informations_sur_les_nuances" data-name="Calque des informations sur les nuances">
    <g>
      <g>
        <path class="cls-2" d="M46.04,87.58c-8.56,0-16.83-2.7-23.92-7.82-10.66-7.68-16.89-19.63-17.11-32.79-.22-13.15,5.61-25.29,15.99-33.31,7.33-5.67,15.99-8.66,25.03-8.66,20.7,0,38.4,15.44,41.16,35.91.04.28.05.58.07.87.04.7.08,1.55.34,2.43v4.25c-.28.87-.32,1.72-.35,2.43-.01.27-.02.54-.06.8-2.73,20.46-20.42,35.89-41.14,35.89h0Z"/>
        <path d="M46.03,7.5c9.17,0,18.13,3.27,25.23,9.2,7.48,6.26,12.14,14.74,13.46,24.52.02.16.03.42.05.69.04.72.09,1.63.34,2.64v3.56c-.27,1.03-.32,1.97-.35,2.66-.01.22-.02.48-.04.58-1.3,9.77-5.94,18.24-13.42,24.51-7.1,5.95-16.07,9.23-25.25,9.23-8.03,0-15.79-2.54-22.46-7.35-10.01-7.21-15.87-18.44-16.07-30.81-.21-12.35,5.27-23.76,15.02-31.29,6.89-5.32,15.02-8.14,23.5-8.14M46.03,2.5c-9.1,0-18.39,2.87-26.56,9.18C-3.65,29.54-3.03,64.72,20.66,81.79c7.9,5.7,16.74,8.29,25.39,8.29,20.81,0,40.55-15.03,43.62-38.07.13-1.01.01-2.18.43-3.09v-5.12c-.4-1.01-.29-2.16-.43-3.23C86.54,17.44,66.78,2.5,46.03,2.5h0Z"/>
      </g>
      <g>
        <path class="cls-1" d="M50.04,22.55c-19.84-2.96-34.12,18.03-24.37,35.43l-3.31,12.23,12.52-3.19c16.44,8.59,35.78-3.24,35.26-21.88-.31-11.18-9.09-20.95-20.1-22.59ZM36.24,63.06l-8.07,1.48,1.39-7.81c-8.54-14.46,2.66-32.34,19.53-30.19,7.74.99,14.49,7.05,16.36,14.61,4.25,17.17-14.02,30.72-29.21,21.91Z"/>
        <path class="cls-2" d="M65.45,41.15c-1.87-7.56-8.62-13.62-16.36-14.61-16.87-2.15-28.07,15.73-19.53,30.19l-1.39,7.81,8.07-1.48c15.19,8.81,33.46-4.74,29.21-21.91ZM57.06,56.59c-3.62,3.19-8.9.93-12.48-1.2-4.59-2.72-11.18-10.45-10.59-16.06.17-1.6,1.71-4.55,3.4-4.9.5-.1,1.59-.08,2.08.08.78.25.95.86,1.24,1.52.27.61,1.71,4.38,1.71,4.8-.05,1.08-2.28,2.42-2.19,3.44.02.2.46.93.6,1.18.98,1.74,2.69,3.63,4.3,4.83.69.52,2.98,1.99,3.74,2.07,1.31.14,2.59-2.94,3.56-3.03.28-.03.47.04.72.12.74.23,4.47,2.2,5.07,2.68,1.03.82-.27,3.69-1.16,4.47Z"/>
        <path class="cls-1" d="M37.39,34.44c.5-.1,1.59-.08,2.07.08.78.26.96.86,1.25,1.52.27.61,1.72,4.41,1.7,4.8-.04,1.08-2.28,2.42-2.19,3.44.02.21.46.94.6,1.18.99,1.74,2.7,3.63,4.3,4.83.7.52,2.99,1.99,3.75,2.07,1.31.14,2.59-2.94,3.55-3.03.28-.03.47.04.72.12.74.23,4.47,2.2,5.06,2.68,1.03.82-.27,3.69-1.15,4.48-3.62,3.19-8.9.93-12.49-1.2-4.58-2.72-11.17-10.45-10.58-16.06.17-1.6,1.71-4.55,3.4-4.89Z"/>
      </g>
    </g>
  </g>
</svg>