<?xml version="1.0" encoding="UTF-8"?>
<svg id="Calque_2" data-name="Calque 2" xmlns="http://www.w3.org/2000/svg" viewBox="0 0 386.72 386.72">
  <g id="Calque_des_informations_sur_les_nuances" data-name="Calque des informations sur les nuances">
    <path d="M193.36,0C86.57,0,0,86.57,0,193.35s86.57,193.36,193.36,193.36,193.35-86.57,193.35-193.36S300.15,0,193.36,0ZM374.12,193.35c0,16.49-2.18,32.64-6.5,48.24h-123.56l91.95-159.28c9.72,12.43,17.71,26.05,23.9,40.68,9.42,22.28,14.2,45.95,14.2,70.36ZM160.87,249.62l-1.08-1.87-26.77-46.36-4.63-8.03,1.08-1.86,26.77-46.37,4.63-8.02h64.98l1.08,1.87,26.77,46.36,4.63,8.02-1.08,1.87-26.77,46.37-4.63,8.02h-64.98ZM193.36,12.59c24.41,0,48.07,4.78,70.36,14.2,21.53,9.1,40.86,22.14,57.46,38.74.35.35.71.71,1.06,1.07l-61.76,106.96L168.53,14.28c8.17-1.12,16.46-1.68,24.84-1.68ZM26.79,123c9.11-21.53,22.15-40.86,38.75-57.46,16.6-16.61,35.94-29.64,57.46-38.74,8.16-3.45,16.51-6.27,25.01-8.46l61.78,107H25.83c.31-.78.64-1.56.96-2.33ZM12.59,193.35c0-16.48,2.18-32.63,6.49-48.24h123.57l-91.95,159.28c-9.72-12.43-17.72-26.05-23.91-40.68-9.42-22.28-14.2-45.95-14.2-70.36ZM193.36,374.12c-24.41,0-48.08-4.78-70.36-14.2-21.52-9.1-40.86-22.15-57.46-38.74-.36-.36-.71-.72-1.07-1.08l61.76-106.96,91.96,159.3c-8.17,1.12-16.45,1.68-24.83,1.68ZM359.93,263.72c-9.1,21.52-22.14,40.86-38.74,57.46-16.61,16.6-35.94,29.64-57.46,38.74-8.16,3.45-16.51,6.28-25.01,8.47l-61.77-107.01h183.95c-.31.78-.64,1.56-.96,2.33Z"/>
  </g>
</svg>