<?xml version="1.0" encoding="UTF-8"?>
<svg id="Calque_2" data-name="Calque 2" xmlns="http://www.w3.org/2000/svg" viewBox="0 0 200 200">
  <g id="Calque_des_informations_sur_les_nuances" data-name="Calque des informations sur les nuances">
    <path d="M100,0C44.77,0,0,44.77,0,100s44.77,100,100,100,100-44.77,100-100S155.23,0,100,0ZM100,6.51c12.62,0,24.86,2.48,36.39,7.35,11.13,4.7,21.13,11.45,29.72,20.03.18.19.36.37.55.56l-27.01,46.77c-4.65-9.77-12.68-17.14-22.12-21.24L87.16,7.38c4.22-.57,8.51-.87,12.84-.87ZM138.96,98.33v3.56c-.14.52-.22,1.02-.27,1.48-.05.44-.07.84-.08,1.18-.01.23-.02.48-.04.58-1,7.51-3.98,14.26-8.7,19.82-1.41,1.67-2.99,3.23-4.71,4.68-2.67,2.24-5.61,4.1-8.73,5.55-5.16,2.41-10.8,3.68-16.52,3.68-2.24,0-4.45-.2-6.62-.59-5.57-.98-10.88-3.22-15.64-6.61-.07-.05-.14-.1-.21-.15-6.51-4.69-11.26-11.07-13.84-18.36-1.39-3.93-2.16-8.11-2.23-12.44-.03-1.5.03-2.99.17-4.46.75-7.9,3.87-15.24,8.94-21.2,1.75-2.05,3.72-3.94,5.91-5.63,2.37-1.84,4.9-3.38,7.54-4.6,5-2.33,10.41-3.54,15.96-3.54,2.33,0,4.65.21,6.93.62,5.56,1.01,10.88,3.21,15.55,6.48t.01.01c.94.65,1.86,1.35,2.74,2.09,5.26,4.39,9.12,9.89,11.39,16.17.98,2.65,1.67,5.44,2.06,8.35.02.16.04.42.05.69.04.71.09,1.63.34,2.64ZM13.85,63.61c4.72-11.13,11.46-21.13,20.05-29.72,8.58-8.58,18.58-15.33,29.71-20.03,4.22-1.79,8.54-3.25,12.93-4.38l27.12,46.96c-1.25-.1-2.51-.16-3.77-.16-8.79,0-17.75,2.68-25.71,8.54H13.36c.16-.41.33-.81.49-1.21ZM26.22,157.43c-5.03-6.43-9.17-13.48-12.37-21.04-4.87-11.52-7.34-23.76-7.34-36.39,0-8.52,1.13-16.88,3.36-24.95h54.3c-6.15,8.81-8.65,19.43-7.55,29.72l-30.4,52.66ZM100,193.49c-12.63,0-24.87-2.47-36.39-7.34-11.13-4.71-21.13-11.46-29.71-20.04l-.56-.56,27.1-46.94c3.03,6.5,7.73,12.38,14.08,16.96,2.6,1.88,5.3,3.41,8.06,4.63l30.26,52.42c-4.22.57-8.51.87-12.84.87ZM186.14,136.39c-4.7,11.13-11.45,21.13-20.03,29.72-8.59,8.58-18.59,15.33-29.72,20.04-4.22,1.78-8.54,3.24-12.94,4.38l-27.01-46.81c1.16.09,2.32.14,3.47.14,9.46,0,18.71-3.11,26.27-8.68h60.46c-.16.41-.33.81-.5,1.21ZM136.15,124.95c3.79-5.45,6.41-11.91,7.38-19.16.13-1.01.01-2.18.43-3.09v-5.12c-.33-.84-.31-1.78-.38-2.69l30.2-52.31c5.03,6.42,9.16,13.47,12.36,21.03,4.88,11.53,7.35,23.77,7.35,36.39,0,8.53-1.13,16.88-3.36,24.95h-53.98Z"/>
  </g>
</svg>