<?xml version="1.0" encoding="UTF-8"?>
<svg id="Calque_2" data-name="Calque 2" xmlns="http://www.w3.org/2000/svg" viewBox="0 0 77.6 77.58">
  <defs>
    <style>
      .cls-1 {
        fill: #fdfefd;
      }

      .cls-2 {
        fill: #32d751;
      }
    </style>
  </defs>
  <g id="Calque_des_informations_sur_les_nuances" data-name="Calque des informations sur les nuances">
    <g>
      <path class="cls-2" d="M77.6,37.05v3.56c-.14.52-.22,1.02-.27,1.48-.05.44-.07.84-.08,1.18-.01.23-.02.48-.04.58-1,7.51-3.98,14.26-8.7,19.82-1.41,1.67-2.99,3.23-4.71,4.68-2.67,2.24-5.61,4.1-8.73,5.55-5.16,2.41-10.8,3.68-16.52,3.68-2.24,0-4.45-.2-6.62-.59-5.57-.98-10.88-3.22-15.64-6.61-.07-.05-.14-.1-.21-.15-6.51-4.69-11.26-11.07-13.84-18.36C.85,47.94.08,43.76,0,39.43c-.03-1.5.03-2.99.17-4.46.75-7.9,3.87-15.24,8.94-21.2,1.75-2.05,3.72-3.94,5.91-5.63,2.37-1.84,4.9-3.38,7.54-4.6,5-2.33,10.41-3.54,15.96-3.54,2.33,0,4.65.21,6.93.62,5.56,1.01,10.88,3.21,15.55,6.48t.01.01c.94.65,1.86,1.35,2.74,2.09,5.26,4.39,9.12,9.89,11.39,16.17.98,2.65,1.67,5.44,2.06,8.35.02.16.04.42.05.69.04.71.09,1.63.34,2.64Z"/>
      <g>
        <path class="cls-1" d="M42.54,15.05c-19.84-2.96-34.12,18.03-24.37,35.43l-3.31,12.23,12.52-3.19c16.44,8.59,35.78-3.24,35.26-21.88-.31-11.18-9.09-20.95-20.1-22.59ZM28.74,55.56l-8.07,1.48,1.39-7.81c-8.54-14.46,2.66-32.34,19.53-30.19,7.74.99,14.49,7.05,16.36,14.61,4.25,17.17-14.02,30.72-29.21,21.91Z"/>
        <path class="cls-2" d="M57.95,33.65c-1.87-7.56-8.62-13.62-16.36-14.61-16.87-2.15-28.07,15.73-19.53,30.19l-1.39,7.81,8.07-1.48c15.19,8.81,33.46-4.74,29.21-21.91ZM49.56,49.09c-3.62,3.19-8.9.93-12.48-1.2-4.59-2.72-11.18-10.45-10.59-16.06.17-1.6,1.71-4.55,3.4-4.9.5-.1,1.59-.08,2.08.08.78.25.95.86,1.24,1.52.27.61,1.71,4.38,1.71,4.8-.05,1.08-2.28,2.42-2.19,3.44.02.2.46.93.6,1.18.98,1.74,2.69,3.63,4.3,4.83.69.52,2.98,1.99,3.74,2.07,1.31.14,2.59-2.94,3.56-3.03.28-.03.47.04.72.12.74.23,4.47,2.2,5.07,2.68,1.03.82-.27,3.69-1.16,4.47Z"/>
        <path class="cls-1" d="M29.89,26.93c.5-.1,1.59-.08,2.07.08.78.26.96.86,1.25,1.52.27.61,1.72,4.41,1.7,4.8-.04,1.08-2.28,2.42-2.19,3.44.02.21.46.94.6,1.18.99,1.74,2.7,3.63,4.3,4.83.7.52,2.99,1.99,3.75,2.07,1.31.14,2.59-2.94,3.55-3.03.28-.03.47.04.72.12.74.23,4.47,2.2,5.06,2.68,1.03.82-.27,3.69-1.15,4.48-3.62,3.19-8.9.93-12.49-1.2-4.58-2.72-11.17-10.45-10.58-16.06.17-1.6,1.71-4.55,3.4-4.89Z"/>
      </g>
    </g>
  </g>
</svg>